<?xml version="1.0" encoding="UTF-8" standalone="no"?>
<!-- Generator: Adobe Illustrator 16.0.0, SVG Export Plug-In . SVG Version: 6.00 Build 0)  -->

<svg
   xmlns:dc="http://purl.org/dc/elements/1.1/"
   xmlns:cc="http://creativecommons.org/ns#"
   xmlns:rdf="http://www.w3.org/1999/02/22-rdf-syntax-ns#"
   xmlns:svg="http://www.w3.org/2000/svg"
   xmlns="http://www.w3.org/2000/svg"
   xmlns:sodipodi="http://sodipodi.sourceforge.net/DTD/sodipodi-0.dtd"
   xmlns:inkscape="http://www.inkscape.org/namespaces/inkscape"
   version="1.1"
   id="Capa_1"
   x="0px"
   y="0px"
   width="44.238px"
   height="44.238px"
   viewBox="0 0 44.238 44.238"
   style="enable-background:new 0 0 44.238 44.238;"
   xml:space="preserve"
   inkscape:version="0.48.5 r10040"
   sodipodi:docname="add121.svg"><metadata
     id="metadata51"><rdf:RDF><cc:Work
         rdf:about=""><dc:format>image/svg+xml</dc:format><dc:type
           rdf:resource="http://purl.org/dc/dcmitype/StillImage" /></cc:Work></rdf:RDF></metadata><defs
     id="defs49" /><sodipodi:namedview
     pagecolor="#ffffff"
     bordercolor="#666666"
     borderopacity="1"
     objecttolerance="10"
     gridtolerance="10"
     guidetolerance="10"
     inkscape:pageopacity="0"
     inkscape:pageshadow="2"
     inkscape:window-width="1137"
     inkscape:window-height="753"
     id="namedview47"
     showgrid="false"
     inkscape:zoom="5.3347802"
     inkscape:cx="-11.434398"
     inkscape:cy="22.118999"
     inkscape:window-x="0"
     inkscape:window-y="0"
     inkscape:window-maximized="0"
     inkscape:current-layer="Capa_1" /><g
     id="g3"
     style="fill:#c52423;fill-opacity:1"><g
       id="g5"
       style="fill:#c52423;fill-opacity:1"><path
         d="M22.119,44.237C9.922,44.237,0,34.315,0,22.12C0,9.924,9.922,0.001,22.119,0.001S44.238,9.923,44.238,22.12    S34.314,44.237,22.119,44.237z M22.119,1.501C10.75,1.501,1.5,10.751,1.5,22.12s9.25,20.619,20.619,20.619    s20.619-9.25,20.619-20.619S33.488,1.501,22.119,1.501z"
         id="path7"
         style="fill:#c52423;fill-opacity:1" /><g
         id="g9"
         style="fill:#c52423;fill-opacity:1"><path
           d="M31.434,22.869H12.805c-0.414,0-0.75-0.336-0.75-0.75s0.336-0.75,0.75-0.75h18.628c0.414,0,0.75,0.336,0.75,0.75     S31.848,22.869,31.434,22.869z"
           id="path11"
           style="fill:#c52423;fill-opacity:1" /></g><g
         id="g13"
         style="fill:#c52423;fill-opacity:1"><path
           d="M22.119,32.183c-0.414,0-0.75-0.336-0.75-0.75V12.806c0-0.414,0.336-0.75,0.75-0.75s0.75,0.336,0.75,0.75v18.626     C22.869,31.847,22.533,32.183,22.119,32.183z"
           id="path15"
           style="fill:#c52423;fill-opacity:1" /></g></g></g><g
     id="g17" /><g
     id="g19" /><g
     id="g21" /><g
     id="g23" /><g
     id="g25" /><g
     id="g27" /><g
     id="g29" /><g
     id="g31" /><g
     id="g33" /><g
     id="g35" /><g
     id="g37" /><g
     id="g39" /><g
     id="g41" /><g
     id="g43" /><g
     id="g45" /></svg>